<svg width="28" height="26" viewBox="0 0 28 26" fill="none" xmlns="http://www.w3.org/2000/svg">
<path d="M26.8651 24C24.9613 20.7088 22.0276 18.3488 18.6038 17.23C20.2974 16.2218 21.6132 14.6856 22.3491 12.8572C23.0851 11.0289 23.2005 9.0095 22.6777 7.1092C22.1548 5.20889 21.0227 3.53274 19.4551 2.33816C17.8874 1.14357 15.971 0.496601 14.0001 0.496601C12.0292 0.496601 10.1128 1.14357 8.54513 2.33816C6.9775 3.53274 5.84534 5.20889 5.32252 7.1092C4.7997 9.0095 4.91513 11.0289 5.65108 12.8572C6.38703 14.6856 7.7028 16.2218 9.39634 17.23C5.97259 18.3475 3.03884 20.7075 1.13509 24C1.06528 24.1138 1.01897 24.2405 0.998905 24.3725C0.978837 24.5045 0.985415 24.6392 1.01825 24.7687C1.05108 24.8981 1.10951 25.0197 1.19008 25.1262C1.27066 25.2327 1.37174 25.3219 1.48738 25.3887C1.60301 25.4555 1.73085 25.4985 1.86335 25.5151C1.99586 25.5316 2.13034 25.5215 2.25887 25.4853C2.3874 25.4491 2.50737 25.3875 2.6117 25.3041C2.71604 25.2208 2.80262 25.1174 2.86634 25C5.22134 20.93 9.38384 18.5 14.0001 18.5C18.6163 18.5 22.7788 20.93 25.1338 25C25.1976 25.1174 25.2842 25.2208 25.3885 25.3041C25.4928 25.3875 25.6128 25.4491 25.7413 25.4853C25.8698 25.5215 26.0043 25.5316 26.1368 25.5151C26.2693 25.4985 26.3972 25.4555 26.5128 25.3887C26.6284 25.3219 26.7295 25.2327 26.8101 25.1262C26.8907 25.0197 26.9491 24.8981 26.9819 24.7687C27.0148 24.6392 27.0213 24.5045 27.0013 24.3725C26.9812 24.2405 26.9349 24.1138 26.8651 24ZM7.00009 9.5C7.00009 8.11553 7.41064 6.76215 8.17981 5.61101C8.94898 4.45987 10.0422 3.56266 11.3213 3.03284C12.6004 2.50303 14.0079 2.36441 15.3657 2.6345C16.7236 2.9046 17.9709 3.57129 18.9498 4.55025C19.9288 5.52922 20.5955 6.7765 20.8656 8.13437C21.1357 9.49224 20.9971 10.8997 20.4673 12.1788C19.9374 13.4579 19.0402 14.5511 17.8891 15.3203C16.7379 16.0895 15.3846 16.5 14.0001 16.5C12.1442 16.498 10.3649 15.7599 9.05254 14.4476C7.74022 13.1352 7.00208 11.3559 7.00009 9.5Z" fill="#0F0F10"/>
</svg>
