<svg width="36" height="35" viewBox="0 0 36 35" fill="none" xmlns="http://www.w3.org/2000/svg">
<path d="M28.7675 10.3587C28.6736 10.2464 28.5562 10.1561 28.4236 10.0941C28.291 10.0321 28.1464 9.99998 28 10H7.835L7.075 5.82125C7.03314 5.59083 6.91174 5.38242 6.73196 5.23234C6.55218 5.08226 6.32544 5.00003 6.09125 5H3C2.73478 5 2.48043 5.10536 2.29289 5.29289C2.10536 5.48043 2 5.73478 2 6C2 6.26522 2.10536 6.51957 2.29289 6.70711C2.48043 6.89464 2.73478 7 3 7H5.25L8.445 24.5362C8.53911 25.0563 8.76895 25.5423 9.11125 25.945C8.63881 26.3863 8.29781 26.9498 8.12607 27.573C7.95433 28.1962 7.95856 28.8549 8.13829 29.4759C8.31801 30.0968 8.66622 30.6559 9.14428 31.0911C9.62235 31.5263 10.2116 31.8205 10.8467 31.9412C11.4818 32.062 12.1379 32.0044 12.7423 31.775C13.3467 31.5456 13.8758 31.1533 14.2708 30.6416C14.6658 30.1299 14.9114 29.5187 14.9804 28.8759C15.0493 28.2332 14.9388 27.5838 14.6613 27H20.3388C20.115 27.4684 19.9993 27.981 20 28.5C20 29.1922 20.2053 29.8689 20.5899 30.4445C20.9744 31.0201 21.5211 31.4687 22.1606 31.7336C22.8001 31.9985 23.5039 32.0678 24.1828 31.9327C24.8617 31.7977 25.4854 31.4644 25.9749 30.9749C26.4644 30.4854 26.7977 29.8617 26.9327 29.1828C27.0678 28.5039 26.9985 27.8001 26.7336 27.1606C26.4687 26.5211 26.0201 25.9744 25.4445 25.5899C24.8689 25.2053 24.1922 25 23.5 25H11.3962C11.1621 25 10.9353 24.9177 10.7555 24.7677C10.5758 24.6176 10.4544 24.4092 10.4125 24.1787L10.0162 22H24.5163C25.2188 21.9999 25.8991 21.7532 26.4384 21.303C26.9777 20.8527 27.3419 20.2275 27.4675 19.5362L28.9875 11.1788C29.0132 11.0343 29.0069 10.886 28.9688 10.7442C28.9308 10.6025 28.8621 10.4709 28.7675 10.3587ZM13 28.5C13 28.7967 12.912 29.0867 12.7472 29.3334C12.5824 29.58 12.3481 29.7723 12.074 29.8858C11.7999 29.9993 11.4983 30.0291 11.2074 29.9712C10.9164 29.9133 10.6491 29.7704 10.4393 29.5607C10.2296 29.3509 10.0867 29.0836 10.0288 28.7926C9.97094 28.5017 10.0006 28.2001 10.1142 27.926C10.2277 27.6519 10.42 27.4176 10.6666 27.2528C10.9133 27.088 11.2033 27 11.5 27C11.8978 27 12.2794 27.158 12.5607 27.4393C12.842 27.7206 13 28.1022 13 28.5ZM25 28.5C25 28.7967 24.912 29.0867 24.7472 29.3334C24.5824 29.58 24.3481 29.7723 24.074 29.8858C23.7999 29.9993 23.4983 30.0291 23.2074 29.9712C22.9164 29.9133 22.6491 29.7704 22.4393 29.5607C22.2296 29.3509 22.0867 29.0836 22.0288 28.7926C21.9709 28.5017 22.0007 28.2001 22.1142 27.926C22.2277 27.6519 22.42 27.4176 22.6666 27.2528C22.9133 27.088 23.2033 27 23.5 27C23.8978 27 24.2794 27.158 24.5607 27.4393C24.842 27.7206 25 28.1022 25 28.5ZM25.5 19.1787C25.458 19.4098 25.3361 19.6187 25.1555 19.7689C24.975 19.919 24.7473 20.0008 24.5125 20H9.6525L8.19875 12H26.8013L25.5 19.1787Z" fill="#0F0F10"/>
<rect x="20" width="16" height="16" rx="8" fill="#E6A556"/>
<path d="M29.708 3.626V12.5H28.412V4.946C28.376 4.99 28.274 5.046 28.106 5.114C27.938 5.182 27.734 5.248 27.494 5.312C27.254 5.372 27.002 5.416 26.738 5.444V4.34C26.998 4.3 27.248 4.24 27.488 4.16C27.728 4.08 27.932 3.992 28.1 3.896C28.272 3.8 28.386 3.71 28.442 3.626H29.708Z" fill="#1A1A1C"/>
</svg>
