<svg width="56" height="59" viewBox="0 0 56 59" fill="none" xmlns="http://www.w3.org/2000/svg">
<path d="M0 0.848837H50C53.3137 0.848837 56 3.53513 56 6.84884V52.1512C56 55.4649 53.3137 58.1512 50 58.1512H0V0.848837Z" fill="#E6A556"/>
<path d="M39.7298 39.925L33.9587 34.1551C35.6314 32.147 36.4655 29.5713 36.2875 26.9638C36.1095 24.3563 34.933 21.9179 33.0029 20.1557C31.0728 18.3935 28.5377 17.4432 25.9248 17.5026C23.3119 17.562 20.8225 18.6264 18.9745 20.4745C17.1264 22.3225 16.062 24.8119 16.0026 27.4248C15.9432 30.0377 16.8935 32.5728 18.6557 34.5029C20.4179 36.433 22.8563 37.6095 25.4638 37.7875C28.0713 37.9655 30.647 37.1314 32.6551 35.4587L38.425 41.2298C38.5107 41.3155 38.6124 41.3834 38.7243 41.4298C38.8363 41.4761 38.9563 41.5 39.0774 41.5C39.1986 41.5 39.3185 41.4761 39.4305 41.4298C39.5424 41.3834 39.6441 41.3155 39.7298 41.2298C39.8155 41.1441 39.8834 41.0424 39.9298 40.9305C39.9761 40.8185 40 40.6986 40 40.5774C40 40.4563 39.9761 40.3363 39.9298 40.2243C39.8834 40.1124 39.8155 40.0107 39.7298 39.925ZM17.8696 27.6683C17.8696 26.027 18.3563 24.4225 19.2682 23.0578C20.1801 21.6931 21.4762 20.6294 22.9926 20.0013C24.5089 19.3732 26.1775 19.2089 27.7873 19.5291C29.3971 19.8493 30.8758 20.6397 32.0364 21.8003C33.197 22.9609 33.9874 24.4395 34.3076 26.0493C34.6278 27.6591 34.4634 29.3277 33.8353 30.8441C33.2072 32.3605 32.1435 33.6566 30.7788 34.5684C29.4141 35.4803 27.8097 35.967 26.1683 35.967C23.9681 35.9646 21.8587 35.0895 20.303 33.5337C18.7472 31.9779 17.8721 29.8685 17.8696 27.6683Z" fill="#1A1A1C"/>
</svg>
