<svg width="168" height="21" viewBox="0 0 168 21" fill="none" xmlns="http://www.w3.org/2000/svg">
<path d="M1.5 6.66C0.846667 6.03333 0.52 5.36 0.52 4.64C0.52 4.08 0.7 3.59333 1.06 3.18C1.74 2.38 2.69333 1.98 3.92 1.98H13.34C13.9267 1.96667 14.44 1.92 14.88 1.84C15.32 1.74667 15.6 1.67333 15.72 1.62V5.1H15.52V4.86C15.52 4.26 15.34 3.77333 14.98 3.4C14.62 3.02667 14.1333 2.83333 13.52 2.82H10.82V14.56C10.8467 15.04 11.0667 15.4 11.48 15.64C11.6667 15.7467 11.8733 15.8 12.1 15.8H12.36V16H6.28V15.8H6.54C6.88667 15.8 7.18 15.68 7.42 15.44C7.67333 15.2 7.80667 14.9133 7.82 14.58V2.82H3.92C3.37333 2.82 2.89333 2.92 2.48 3.12C1.64 3.52 1.22 4.14667 1.22 5C1.22 5.50667 1.38 6.02667 1.7 6.56L1.5 6.66ZM17.0648 15.8C17.4115 15.8 17.7048 15.68 17.9448 15.44C18.1982 15.1867 18.3315 14.8867 18.3448 14.54V3.44C18.3315 3.09333 18.1982 2.8 17.9448 2.56C17.7048 2.32 17.4115 2.2 17.0648 2.2H16.8048V2H22.8848L22.8648 2.2H22.6248C22.2782 2.2 21.9782 2.32 21.7248 2.56C21.4715 2.8 21.3448 3.09333 21.3448 3.44V14.54C21.3448 14.8867 21.4715 15.1867 21.7248 15.44C21.9782 15.68 22.2782 15.8 22.6248 15.8H22.8648L22.8848 16H16.8048V15.8H17.0648ZM42.6197 15.8H42.9397V16H36.9397V15.82H37.2397C37.4664 15.82 37.6597 15.7333 37.8197 15.56C37.9797 15.3733 38.0464 15.1733 38.0197 14.96L37.2397 7.7L33.4797 14.18C32.9864 15.0067 32.733 15.7467 32.7197 16.4H32.5197L27.3797 7.76L26.5997 14.96C26.573 15.1733 26.6397 15.3733 26.7997 15.56C26.9597 15.7333 27.153 15.82 27.3797 15.82H27.6797V16H23.4997V15.8H23.8197C24.193 15.8 24.513 15.6867 24.7797 15.46C25.0597 15.2333 25.2264 14.9267 25.2797 14.54L26.9397 1.72H27.1197L33.3197 11.92L39.2797 1.72H39.4597L41.1597 14.54C41.2264 14.9267 41.393 15.2333 41.6597 15.46C41.9397 15.6867 42.2597 15.8 42.6197 15.8ZM43.8422 15.8C44.1889 15.8 44.4822 15.68 44.7222 15.44C44.9755 15.1867 45.1089 14.8867 45.1222 14.54V3.4C45.0822 2.93333 44.8622 2.58667 44.4622 2.36C44.2622 2.25333 44.0555 2.2 43.8422 2.2H43.5822V2H51.2422C51.6555 2 52.1089 1.96 52.6022 1.88C53.0955 1.8 53.4422 1.72 53.6422 1.64V5.14H53.4422V4.9C53.4422 4.3 53.2622 3.82 52.9022 3.46C52.5555 3.08667 52.0822 2.88667 51.4822 2.86H48.1222V8.68H50.7622C51.2555 8.66667 51.6622 8.5 51.9822 8.18C52.3022 7.84667 52.4622 7.44 52.4622 6.96V6.78H52.6622V11.4H52.4622V11.24C52.4622 10.5733 52.1955 10.08 51.6622 9.76C51.3955 9.61333 51.1022 9.53333 50.7822 9.52H48.1222V15.14H50.7422C51.7155 15.14 52.5289 14.86 53.1822 14.3C53.8489 13.74 54.3422 12.9467 54.6622 11.92H54.8622L53.9422 16H43.5822V15.8H43.8422ZM56.3813 15.8C56.7279 15.8 57.0213 15.68 57.2613 15.44C57.5146 15.1867 57.6479 14.8867 57.6613 14.54V3.46C57.6479 3.11333 57.5146 2.82 57.2613 2.58C57.0213 2.32667 56.7279 2.2 56.3813 2.2H56.1213V2H62.2013L62.1813 2.2H61.9413C61.5946 2.2 61.2946 2.32667 61.0413 2.58C60.7879 2.82 60.6613 3.11333 60.6613 3.46V15.14H63.2813C64.2546 15.14 65.0679 14.86 65.7213 14.3C66.3879 13.74 66.8813 12.9467 67.2013 11.92H67.4013L66.4813 16H56.1213V15.8H56.3813ZM68.5883 15.8C68.9349 15.8 69.2283 15.68 69.4683 15.44C69.7216 15.1867 69.8549 14.8867 69.8683 14.54V3.4C69.8283 2.93333 69.6083 2.58667 69.2083 2.36C69.0083 2.25333 68.8016 2.2 68.5883 2.2H68.3283V2H75.9883C76.4016 2 76.8549 1.96 77.3483 1.88C77.8416 1.8 78.1883 1.72 78.3883 1.64V5.14H78.1883V4.9C78.1883 4.3 78.0083 3.82 77.6483 3.46C77.3016 3.08667 76.8283 2.88667 76.2283 2.86H72.8683V8.68H75.5083C76.0016 8.66667 76.4083 8.5 76.7283 8.18C77.0483 7.84667 77.2083 7.44 77.2083 6.96V6.78H77.4083V11.4H77.2083V11.24C77.2083 10.5733 76.9416 10.08 76.4083 9.76C76.1416 9.61333 75.8483 9.53333 75.5283 9.52H72.8683V15.14H75.4883C76.4616 15.14 77.2749 14.86 77.9283 14.3C78.5949 13.74 79.0883 12.9467 79.4083 11.92H79.6083L78.6883 16H68.3283V15.8H68.5883ZM81.1055 14.14C81.1055 13.18 81.3121 12.36 81.7255 11.68H81.9055C81.8921 11.7867 81.8855 11.8933 81.8855 12C81.8855 12.92 82.2121 13.7267 82.8655 14.42C83.5321 15.1 84.4388 15.44 85.5855 15.44C86.4788 15.44 87.1721 15.2267 87.6655 14.8C88.1721 14.3733 88.4255 13.8333 88.4255 13.18C88.4255 12.3933 87.8921 11.7067 86.8255 11.12L83.3455 8.82C82.6521 8.42 82.1521 7.94 81.8455 7.38C81.5521 6.80667 81.4055 6.22667 81.4055 5.64C81.4055 4.38667 81.7988 3.42 82.5855 2.74C83.3855 2.06 84.4055 1.72 85.6455 1.72C86.3788 1.72 87.2855 1.78667 88.3655 1.92H89.6255L89.3655 4.86H89.1655C89.1655 4.16667 88.9055 3.61333 88.3855 3.2C87.8788 2.77333 87.1988 2.56 86.3455 2.56C85.3055 2.56 84.5521 2.88 84.0855 3.52C83.8455 3.82667 83.7255 4.17333 83.7255 4.56C83.7255 5.2 84.1921 5.79333 85.1255 6.34L88.9455 8.82C90.1455 9.51333 90.7455 10.5333 90.7455 11.88C90.7455 13.3067 90.2588 14.4 89.2855 15.16C88.3255 15.9067 87.0455 16.28 85.4455 16.28C84.5388 16.28 83.6988 16.1733 82.9255 15.96C82.1655 15.7333 81.6055 15.4333 81.2455 15.06C81.1521 14.8067 81.1055 14.5 81.1055 14.14ZM92.668 14.14C92.668 13.18 92.8746 12.36 93.288 11.68H93.468C93.4546 11.7867 93.448 11.8933 93.448 12C93.448 12.92 93.7746 13.7267 94.428 14.42C95.0946 15.1 96.0013 15.44 97.148 15.44C98.0413 15.44 98.7346 15.2267 99.228 14.8C99.7346 14.3733 99.988 13.8333 99.988 13.18C99.988 12.3933 99.4546 11.7067 98.388 11.12L94.908 8.82C94.2146 8.42 93.7146 7.94 93.408 7.38C93.1146 6.80667 92.968 6.22667 92.968 5.64C92.968 4.38667 93.3613 3.42 94.148 2.74C94.948 2.06 95.968 1.72 97.208 1.72C97.9413 1.72 98.848 1.78667 99.928 1.92H101.188L100.928 4.86H100.728C100.728 4.16667 100.468 3.61333 99.948 3.2C99.4413 2.77333 98.7613 2.56 97.908 2.56C96.868 2.56 96.1146 2.88 95.648 3.52C95.408 3.82667 95.288 4.17333 95.288 4.56C95.288 5.2 95.7546 5.79333 96.688 6.34L100.508 8.82C101.708 9.51333 102.308 10.5333 102.308 11.88C102.308 13.3067 101.821 14.4 100.848 15.16C99.888 15.9067 98.608 16.28 97.008 16.28C96.1013 16.28 95.2613 16.1733 94.488 15.96C93.728 15.7333 93.168 15.4333 92.808 15.06C92.7146 14.8067 92.668 14.5 92.668 14.14ZM127.55 19.66C126.097 20.3933 124.624 20.5133 123.13 20.02C121.544 19.5133 120.177 18.4333 119.03 16.78C118.417 15.9 117.89 14.88 117.45 13.72L116.81 12.02H112.09L111.03 14.54C110.964 14.7133 110.93 14.8533 110.93 14.96C110.93 15.0667 110.95 15.1867 110.99 15.32C111.044 15.44 111.144 15.5533 111.29 15.66C111.45 15.7533 111.624 15.8 111.81 15.8H111.97V16H107.69V15.8H107.87C108.177 15.8 108.477 15.7133 108.77 15.54C109.077 15.3533 109.33 15.08 109.53 14.72L113.99 4.54C113.47 3.36667 112.917 2.56 112.33 2.12C111.837 1.74667 111.364 1.56 110.91 1.56C110.47 1.56 110.057 1.62667 109.67 1.76L109.63 1.56C110.59 1.06667 111.51 0.819999 112.39 0.819999C113.484 0.819999 114.464 1.24667 115.33 2.1C116.184 2.94 116.937 4.15333 117.59 5.74L120.49 12.9C121.584 15.6067 122.704 17.4667 123.85 18.48C124.317 18.8933 124.797 19.18 125.29 19.34C125.784 19.5 126.197 19.58 126.53 19.58C126.877 19.58 127.21 19.54 127.53 19.46L127.55 19.66ZM112.43 11.16H116.51L115.11 7.46C115.044 7.27333 114.95 7.02 114.83 6.7C114.71 6.36667 114.63 6.13333 114.59 6L112.43 11.16ZM137.429 2.2H137.089C136.809 2.2 136.562 2.29333 136.349 2.48C136.149 2.65333 136.049 2.87333 136.049 3.14V10.94C136.049 12.58 135.536 13.88 134.509 14.84C133.482 15.8 132.076 16.28 130.289 16.28C128.182 16.28 126.569 15.8133 125.449 14.88C124.329 13.9333 123.769 12.6267 123.769 10.96V3.2C123.769 2.90667 123.662 2.66667 123.449 2.48C123.249 2.29333 123.002 2.2 122.709 2.2H122.389V2H128.149V2.2H127.829C127.536 2.2 127.289 2.29333 127.089 2.48C126.889 2.65333 126.782 2.88 126.769 3.16V10.8C126.769 12.2133 127.116 13.3333 127.809 14.16C128.502 14.9867 129.456 15.4 130.669 15.4C131.882 15.4 132.842 15.0133 133.549 14.24C134.256 13.4533 134.616 12.3933 134.629 11.06V3.16C134.629 2.88 134.522 2.65333 134.309 2.48C134.109 2.29333 133.862 2.2 133.569 2.2H133.249V2H137.429V2.2ZM144.239 2.88H143.379C143.352 2.88 143.332 2.88 143.319 2.88V14.54C143.332 15.0333 143.546 15.4 143.959 15.64C144.159 15.7467 144.372 15.8 144.599 15.8H144.859V16H138.779V15.8H139.039C139.519 15.8 139.886 15.5933 140.139 15.18C140.246 14.9933 140.306 14.7867 140.319 14.56V3.46C140.306 3.11333 140.172 2.82 139.919 2.58C139.679 2.32667 139.386 2.2 139.039 2.2H138.779V2H145.639C146.932 2 148.026 2.28 148.919 2.84C149.372 3.12 149.732 3.51333 149.999 4.02C150.266 4.51333 150.399 5.08 150.399 5.72C150.399 6.34667 150.286 6.92667 150.059 7.46C149.846 7.99333 149.479 8.46 148.959 8.86C148.452 9.26 147.839 9.5 147.119 9.58C147.892 9.83333 148.572 10.42 149.159 11.34C150.599 13.6467 151.666 15.02 152.359 15.46C152.706 15.6733 153.139 15.7867 153.659 15.8V16H151.699C150.566 16 149.619 15.8467 148.859 15.54C148.099 15.22 147.479 14.68 146.999 13.92C146.759 13.5333 146.452 12.9533 146.079 12.18C145.706 11.3933 145.459 10.8333 145.339 10.5C144.979 9.7 144.526 9.25333 143.979 9.16V8.96H144.599C145.199 8.96 145.726 8.78 146.179 8.42C146.646 8.06 146.959 7.47333 147.119 6.66C147.172 6.38 147.199 6.16 147.199 6C147.199 4.90667 146.979 4.12 146.539 3.64C146.099 3.14667 145.532 2.89333 144.839 2.88C144.706 2.88 144.506 2.88 144.239 2.88ZM167.326 15.8H167.506V16H161.126V15.8H161.306C161.6 15.8 161.813 15.7133 161.946 15.54C162.093 15.3533 162.166 15.18 162.166 15.02C162.166 14.86 162.133 14.7 162.066 14.54L161.086 12.08H156.406L155.366 14.54C155.3 14.7133 155.266 14.88 155.266 15.04C155.266 15.1867 155.333 15.3533 155.466 15.54C155.613 15.7133 155.84 15.8 156.146 15.8H156.306V16H152.026V15.8H152.206C152.513 15.8 152.82 15.7067 153.126 15.52C153.433 15.3333 153.686 15.0533 153.886 14.68L158.506 4.22C159.133 2.9 159.466 2.02667 159.506 1.6H159.686L165.626 14.64C165.826 15.0267 166.08 15.32 166.386 15.52C166.693 15.7067 167.006 15.8 167.326 15.8ZM156.746 11.24H160.746L158.806 6.32L156.746 11.24Z" fill="#1A1A1C"/>
</svg>
